<svg width="1024" height="227" viewBox="0 0 1024 227" fill="none" xmlns="http://www.w3.org/2000/svg">
<g clip-path="url(#clip0_366_1792)">
<path d="M450.153 209.298C432.046 209.298 417.767 203.835 407.723 193.056C397.526 182.122 392.354 166.979 392.354 148.047V88.7869C392.354 82.6404 394.403 77.2007 398.293 73.0518C402.076 69.0181 406.81 66.9667 412.38 66.9667C417.951 66.9667 422.677 69.0104 426.46 73.0441C430.35 77.2007 432.399 82.6404 432.399 88.7793V148.04C432.399 155.362 433.78 160.64 436.504 163.721C439.274 166.864 443.869 168.454 450.161 168.454C456.453 168.454 461.279 166.864 464.041 163.729C466.765 160.64 468.146 155.362 468.146 148.04V88.7793C468.146 82.6327 470.195 77.193 474.085 73.0441C477.868 69.0104 482.602 66.959 488.172 66.959C493.742 66.959 498.469 69.0027 502.252 73.0364C506.142 77.193 508.19 82.6327 508.19 88.7793V148.04C508.19 166.979 502.973 182.13 492.684 193.071C482.563 203.835 468.254 209.29 450.161 209.29" fill="#0248C4"/>
<path d="M739.954 184.812L714.749 43.5951C714.749 43.5951 708.894 20.5455 682.592 25.6702C682.592 25.6702 669.073 26.4001 662.497 42.4964L634.737 148.501L606.969 42.4964C600.394 26.4001 586.882 25.6702 586.882 25.6702C560.572 20.5532 554.725 43.5951 554.725 43.5951L529.513 184.812C527.687 205.664 543.761 208.96 543.761 208.96C564.953 213.171 569.158 192.503 569.158 192.503L584.688 79.6369C584.688 79.6369 609.348 182.446 613.553 197.075C618.01 207.355 628.238 209.529 633.279 209.967V210.067C633.279 210.067 633.832 210.098 634.745 210.067C635.65 210.098 636.203 210.067 636.203 210.067V209.967C641.244 209.529 651.471 207.355 655.929 197.075C660.134 182.446 684.794 79.6369 684.794 79.6369L700.332 192.503C700.332 192.503 704.529 213.171 725.721 208.96C725.721 208.96 741.803 205.664 739.969 184.812" fill="#03B764"/>
<path d="M789.037 124.322H840.674C840.674 124.322 839.7 102.371 814.856 101.395C814.856 101.395 792.436 99.9354 789.037 124.322ZM803.162 170.913C826.787 181.4 853.58 163.107 853.58 163.107C876.713 156.276 876.713 175.546 876.713 175.546C877.45 191.15 859.91 199.925 859.91 199.925C818.5 221.637 780.988 200.9 780.988 200.9C745.432 179.687 748.594 135.785 748.594 135.785C749.085 120.411 758.238 70.6548 814.119 68.2192C853.335 66.5135 878.417 98.2221 880.12 129.439C881.294 150.975 868.665 150.898 868.665 150.898H790.241C789.512 163.091 803.155 170.897 803.155 170.897" fill="#03B764"/>
<path d="M1004.63 12.7852C993.985 12.7852 985.268 21.5133 985.268 32.1775V79.7442C975.7 71.9458 964.13 67.3666 951.654 67.3666C918.761 67.3666 892.113 99.0828 892.113 138.206C892.113 177.328 918.769 209.045 951.654 209.045C964.606 209.045 976.56 204.066 986.343 195.714C988.913 203.421 996.11 209.045 1004.64 209.045C1015.29 209.045 1024.01 200.324 1024.01 189.652V32.1775C1024.01 21.5133 1015.29 12.7852 1004.64 12.7852M958.966 172.55C944.434 172.55 932.664 156.883 932.664 137.553C932.664 118.222 944.434 102.556 958.966 102.556C973.498 102.556 985.268 118.229 985.268 137.553C985.268 156.876 973.498 172.55 958.966 172.55Z" fill="#03B764"/>
<path d="M371.163 138.129C371.163 177.428 341.262 209.29 304.386 209.29C267.511 209.29 237.61 177.428 237.61 138.129C237.61 98.829 267.511 66.9668 304.386 66.9668C341.262 66.9668 371.163 98.829 371.163 138.129ZM304.379 103.731C288.818 103.731 276.197 119.266 276.197 138.436C276.197 157.605 288.818 173.141 304.379 173.141C319.939 173.141 332.561 157.605 332.561 138.436C332.561 119.266 319.939 103.731 304.379 103.731Z" fill="#0248C4"/>
<path d="M183.847 0H42.8447C19.1822 0 0 19.2083 0 42.903V184.097C0 207.792 19.1822 227 42.8447 227H183.847C207.51 227 226.692 207.792 226.692 184.097V42.903C226.692 19.2083 207.51 0 183.847 0Z" fill="#0248C4"/>
<path d="M113.342 209.221C105.769 209.221 99.1778 205.288 95.7251 198.695C94.1598 195.707 93.3312 192.334 93.3312 188.946C93.3312 188.946 93.3542 123.008 93.3312 103.708C79.0675 92.5445 29.8697 54.067 29.8697 54.067C29.0334 53.414 28.2738 52.6533 27.5986 51.8082C24.1382 47.3903 22.6036 41.8815 23.2788 36.2958C23.954 30.7101 26.7546 25.7237 31.1664 22.2586C34.8417 19.3697 39.4453 17.7793 44.1334 17.7793C48.8215 17.7793 53.9545 19.8999 59.1106 24.0795L113.342 64.278L167.588 24.0642C171.279 21.1445 176.343 17.7793 182.55 17.7793C187.231 17.7793 191.834 19.3697 195.517 22.2586C199.929 25.7237 202.73 30.7024 203.405 36.2958C204.08 41.8815 202.545 47.3903 199.085 51.8082C198.417 52.661 197.65 53.4216 196.814 54.0747C196.814 54.0747 147.624 92.5522 133.352 103.716C133.322 123.016 133.352 188.953 133.352 188.953C133.352 192.341 132.524 195.714 130.958 198.703C127.506 205.295 120.922 209.229 113.342 209.229V209.221Z" fill="white"/>
</g>
<defs>
<clipPath id="clip0_366_1792">
<rect width="1024" height="227" fill="white"/>
</clipPath>
</defs>
</svg>
